HIERARCHY
ROOT Hips
{
	OFFSET 0.000000 103.266502 0.000000
	CHANNELS 6 Xposition Yposition Zposition Xrotation Yrotation Zrotation 
	JOINT Spine
	{
		OFFSET -0.002400 12.777504 0.315300
		CHANNELS 3 Xrotation Yrotation Zrotation
		JOINT Spine1
		{
			OFFSET -0.002067 5.816869 0.032633
			CHANNELS 3 Xrotation Yrotation Zrotation
			JOINT Spine1_split
			{
				OFFSET -0.002067 5.816869 0.032633
				CHANNELS 3 Xrotation Yrotation Zrotation
				JOINT Spine2
				{
					OFFSET -0.002067 5.816869 0.032633
					CHANNELS 3 Xrotation Yrotation Zrotation
					JOINT Neck
					{
						OFFSET -0.003700 21.199493 -0.826900
						CHANNELS 3 Xrotation Yrotation Zrotation
						JOINT Head
						{
							OFFSET 0.000000 20.442200 4.834800
							CHANNELS 3 Xrotation Yrotation Zrotation
							JOINT HeadTop_End
							{
								OFFSET 0.000000 34.668396 4.968400
								CHANNELS 3 Xrotation Yrotation Zrotation
								End Site
								{
									OFFSET 0.000000 0.000000 0.000000
								}
							}
						}
					}
					JOINT LeftShoulder
					{
						OFFSET 3.288150 8.794197 -1.372250
						CHANNELS 3 Xrotation Yrotation Zrotation
						JOINT LeftShoulder_split
						{
							OFFSET 3.288150 8.794197 -1.372250
							CHANNELS 3 Xrotation Yrotation Zrotation
							JOINT LeftArm
							{
								OFFSET 11.953299 -2.279007 -0.146200
								CHANNELS 3 Xrotation Yrotation Zrotation
								JOINT LeftForeArm
								{
									OFFSET 18.448900 0.000000 0.000000
									CHANNELS 3 Xrotation Yrotation Zrotation
									JOINT LeftHand
									{
										OFFSET 29.527798 0.000000 0.000000
										CHANNELS 3 Xrotation Yrotation Zrotation
										JOINT LeftHandThumb1
										{
											OFFSET 10.739754 -2.369614 9.225399
											CHANNELS 3 Xrotation Yrotation Zrotation
											JOINT LeftHandThumb2
											{
												OFFSET 4.926170 -2.844131 2.844125
												CHANNELS 3 Xrotation Yrotation Zrotation
												JOINT LeftHandThumb3
												{
													OFFSET 4.614891 -2.664413 2.664409
													CHANNELS 3 Xrotation Yrotation Zrotation
													JOINT LeftHandThumb4
													{
														OFFSET 4.432465 -2.559082 2.559083
														CHANNELS 3 Xrotation Yrotation Zrotation
														End Site
														{
															OFFSET 0.000000 0.000000 0.000000
														}
													}
												}
											}
										}
										JOINT LeftHandIndex1
										{
											OFFSET 26.467674 0.187653 6.405298
											CHANNELS 3 Xrotation Yrotation Zrotation
											JOINT LeftHandIndex2
											{
												OFFSET 8.792900 0.000000 0.000000
												CHANNELS 3 Xrotation Yrotation Zrotation
												JOINT LeftHandIndex3
												{
													OFFSET 10.075203 0.000000 0.000000
													CHANNELS 3 Xrotation Yrotation Zrotation
													End Site
													{
														OFFSET 0.000000 0.000000 0.000000
													}
												}
											}
										}
										JOINT LeftHandMiddle1
										{
											OFFSET 25.764404 0.000000 0.000000
											CHANNELS 3 Xrotation Yrotation Zrotation
											JOINT LeftHandMiddle2
											{
												OFFSET 9.393974 0.000000 0.000000
												CHANNELS 3 Xrotation Yrotation Zrotation
												JOINT LeftHandMiddle3
												{
													OFFSET 10.771950 0.000000 0.000000
													CHANNELS 3 Xrotation Yrotation Zrotation
													End Site
													{
														OFFSET 0.000000 0.000000 0.000000
													}
												}
											}
										}
										JOINT LeftHandRing1
										{
											OFFSET 24.660927 0.144547 -6.225808
											CHANNELS 3 Xrotation Yrotation Zrotation
											JOINT LeftHandRing2
											{
												OFFSET 9.393799 0.000000 0.000000
												CHANNELS 3 Xrotation Yrotation Zrotation
												JOINT LeftHandRing3
												{
													OFFSET 9.928497 0.000000 0.000000
													CHANNELS 3 Xrotation Yrotation Zrotation
													End Site
													{
														OFFSET 0.000000 0.000000 0.000000
													}
												}
											}
										}
										JOINT LeftHandPinky1
										{
											OFFSET 23.655350 0.125290 -12.815412
											CHANNELS 3 Xrotation Yrotation Zrotation
											JOINT LeftHandPinky2
											{
												OFFSET 8.425102 0.000000 0.000000
												CHANNELS 3 Xrotation Yrotation Zrotation
												JOINT LeftHandPinky3
												{
													OFFSET 8.147003 0.000000 0.000000
													CHANNELS 3 Xrotation Yrotation Zrotation
													End Site
													{
														OFFSET 0.000000 0.000000 0.000000
													}
												}
											}
										}
									}
								}
							}
						}
					}
					JOINT RightShoulder
					{
						OFFSET -3.249400 8.794197 -1.372250
						CHANNELS 3 Xrotation Yrotation Zrotation
						JOINT RightShoulder_split
						{
							OFFSET -3.249400 8.794197 -1.372250
							CHANNELS 3 Xrotation Yrotation Zrotation
							JOINT RightArm
							{
								OFFSET -11.953299 -2.279007 -0.146200
								CHANNELS 3 Xrotation Yrotation Zrotation
								JOINT RightForeArm
								{
									OFFSET -18.448900 0.000000 0.000000
									CHANNELS 3 Xrotation Yrotation Zrotation
									JOINT RightHand
									{
										OFFSET -29.527802 0.000000 0.000000
										CHANNELS 3 Xrotation Yrotation Zrotation
										JOINT RightHandThumb1
										{
											OFFSET -10.739754 -2.369614 9.225399
											CHANNELS 3 Xrotation Yrotation Zrotation
											JOINT RightHandThumb2
											{
												OFFSET -4.926170 -2.844131 2.844125
												CHANNELS 3 Xrotation Yrotation Zrotation
												JOINT RightHandThumb3
												{
													OFFSET -4.614891 -2.664413 2.664409
													CHANNELS 3 Xrotation Yrotation Zrotation
													JOINT RightHandThumb4
													{
														OFFSET -4.432465 -2.559082 2.559083
														CHANNELS 3 Xrotation Yrotation Zrotation
														End Site
														{
															OFFSET 0.000000 0.000000 0.000000
														}
													}
												}
											}
										}
										JOINT RightHandIndex1
										{
											OFFSET -26.467674 0.187653 6.405298
											CHANNELS 3 Xrotation Yrotation Zrotation
											JOINT RightHandIndex2
											{
												OFFSET -8.792900 0.000000 0.000000
												CHANNELS 3 Xrotation Yrotation Zrotation
												JOINT RightHandIndex3
												{
													OFFSET -10.075203 0.000000 0.000000
													CHANNELS 3 Xrotation Yrotation Zrotation
													End Site
													{
														OFFSET 0.000000 0.000000 0.000000
													}
												}
											}
										}
										JOINT RightHandMiddle1
										{
											OFFSET -25.764404 0.000000 0.000000
											CHANNELS 3 Xrotation Yrotation Zrotation
											JOINT RightHandMiddle2
											{
												OFFSET -9.393974 0.000000 0.000000
												CHANNELS 3 Xrotation Yrotation Zrotation
												JOINT RightHandMiddle3
												{
													OFFSET -10.771950 0.000000 0.000000
													CHANNELS 3 Xrotation Yrotation Zrotation
													End Site
													{
														OFFSET 0.000000 0.000000 0.000000
													}
												}
											}
										}
										JOINT RightHandRing1
										{
											OFFSET -24.660927 0.144547 -6.225808
											CHANNELS 3 Xrotation Yrotation Zrotation
											JOINT RightHandRing2
											{
												OFFSET -9.393799 0.000000 0.000000
												CHANNELS 3 Xrotation Yrotation Zrotation
												JOINT RightHandRing3
												{
													OFFSET -9.928497 0.000000 0.000000
													CHANNELS 3 Xrotation Yrotation Zrotation
													End Site
													{
														OFFSET 0.000000 0.000000 0.000000
													}
												}
											}
										}
										JOINT RightHandPinky1
										{
											OFFSET -23.655350 0.125290 -12.815412
											CHANNELS 3 Xrotation Yrotation Zrotation
											JOINT RightHandPinky2
											{
												OFFSET -8.425102 0.000000 0.000000
												CHANNELS 3 Xrotation Yrotation Zrotation
												JOINT RightHandPinky3
												{
													OFFSET -8.147003 0.000000 0.000000
													CHANNELS 3 Xrotation Yrotation Zrotation
													End Site
													{
														OFFSET 0.000000 0.000000 0.000000
													}
												}
											}
										}
									}
								}
							}
						}
					}
				}
			}
		}
	}
	JOINT LeftUpLeg
	{
		OFFSET 11.394100 -6.187798 -0.413800
		CHANNELS 3 Xrotation Yrotation Zrotation
		JOINT LeftLeg
		{
			OFFSET 0.430247 -32.302673 3.732800
			CHANNELS 3 Xrotation Yrotation Zrotation
			JOINT LeftFoot
			{
				OFFSET -0.430247 -48.264931 -6.423300
				CHANNELS 3 Xrotation Yrotation Zrotation
				JOINT LeftToeBase
				{
					OFFSET 4.230900 -16.068199 23.438400
					CHANNELS 3 Xrotation Yrotation Zrotation
					JOINT LeftToe_End
					{
						OFFSET 4.510700 0.695400 19.974600
						CHANNELS 3 Xrotation Yrotation Zrotation
						End Site
						{
							OFFSET 0.000000 0.000000 0.000000
						}
					}
				}
			}
		}
	}
	JOINT RightUpLeg
	{
		OFFSET -11.333700 -6.187798 -0.413800
		CHANNELS 3 Xrotation Yrotation Zrotation
		JOINT RightLeg
		{
			OFFSET -0.430392 -32.302628 3.733000
			CHANNELS 3 Xrotation Yrotation Zrotation
			JOINT RightFoot
			{
				OFFSET 0.430392 -48.264973 -6.423500
				CHANNELS 3 Xrotation Yrotation Zrotation
				JOINT RightToeBase
				{
					OFFSET -4.230900 -16.068199 23.438400
					CHANNELS 3 Xrotation Yrotation Zrotation
					JOINT RightToe_End
					{
						OFFSET -4.510700 0.695400 19.974600
						CHANNELS 3 Xrotation Yrotation Zrotation
						End Site
						{
							OFFSET 0.000000 0.000000 0.000000
						}
					}
				}
			}
		}
	}
}
MOTION
Frames: 5
Frame Time: 0.016667
0.978093 90.087593 -0.483348 -4.052778 -61.133253 -2.269875 10.530366 0.433978 -1.703588 7.138509 0.481490 -4.840605 0.000000 0.000000 0.000000 7.341879 0.512813 -4.809184 -23.259403 25.805454 11.809878 -6.291531 25.717213 -2.641170 0.000000 -0.000000 -0.000000 -6.367307 -10.788146 -3.787805 0.000000 0.000000 0.000000 -21.873377 6.546972 -38.737442 3.298299 -47.813619 1.501514 23.526231 -7.456317 15.579784 -1.743989 -11.605045 7.087511 1.175754 16.638481 -3.372737 -0.086280 -2.198422 0.945726 -0.000001 0.000002 -0.000001 13.261897 -0.994758 14.608081 -0.163785 0.326162 -27.178235 -0.000001 0.000004 -0.000000 8.530531 -0.377316 3.011988 0.228016 0.647993 -25.974479 -0.000001 0.000006 0.000002 6.138283 3.128088 -12.283908 0.030978 0.295625 -26.198145 -0.000001 -0.000001 -0.000001 -5.593221 7.672143 -9.955785 0.209712 0.277164 -42.660948 0.000000 0.000001 -0.000002 -5.546719 11.668541 2.442834 0.000000 0.000000 0.000000 -42.804642 -24.538232 26.405976 34.764160 107.847273 -33.401326 -11.227954 18.802027 -0.896787 -0.426183 14.756542 -9.085191 -0.217035 -13.162702 4.783228 2.611182 -8.768506 -6.255829 0.000001 -0.000000 0.000001 19.387705 11.163753 -18.356922 -0.122748 -0.303400 13.011843 0.000001 -0.000000 -0.000001 4.365710 2.482339 -9.836898 0.357436 -0.462543 21.866700 -0.000000 -0.000001 0.000004 -6.967548 -10.645250 0.698122 0.113405 -0.065226 21.132226 -0.000002 0.000001 0.000000 -19.392987 -20.192990 0.968373 0.222122 -0.061965 31.820909 -0.000002 0.000001 0.000001 -36.799242 9.453170 31.085021 42.638719 -8.509385 -9.833009 -4.689316 -2.844886 -9.584303 -0.327599 1.238423 0.837254 -0.000000 0.000003 0.000000 -33.306953 -7.289258 -22.318697 45.426775 2.094731 -7.365670 -12.473708 5.434466 20.123469 -0.322805 -0.997370 -0.837142 -0.000000 0.000002 0.000000 
0.938465 90.137489 -0.493328 -3.889695 -60.913738 -1.883777 10.590803 0.433330 -1.639591 7.257250 0.468894 -4.778351 0.000000 0.000000 0.000000 7.460057 0.466606 -4.741547 -22.867979 25.805337 11.676782 -5.777270 25.649952 -2.782642 -0.000000 -0.000000 -0.000000 -6.418701 -10.815720 -4.148094 0.000000 0.000000 0.000000 -21.457114 6.690794 -38.715090 4.406698 -47.475631 2.146115 23.256357 -7.467389 15.380461 -1.783013 -11.815739 7.005580 1.104973 16.445752 -3.450754 -0.140461 -2.396517 0.847608 0.000001 -0.000001 -0.000002 13.259816 -0.994091 14.834551 -0.164103 0.325794 -26.951585 0.000000 -0.000004 -0.000003 8.532575 -0.380224 3.238594 0.227725 0.647169 -25.747836 -0.000001 -0.000000 0.000003 6.140723 3.125707 -12.057598 0.030061 0.294086 -25.971502 0.000002 0.000001 -0.000003 -5.598548 7.673630 -9.728863 0.208908 0.276904 -42.434258 -0.000001 0.000001 -0.000002 -5.573484 11.590785 2.601376 0.000000 0.000000 0.000000 -43.195165 -24.472061 26.216955 33.970298 108.583048 -32.512349 -11.201352 19.600896 -1.776044 -0.422797 14.740484 -9.092045 -0.211413 -13.177338 4.776912 2.614776 -8.783918 -6.262758 -0.000000 0.000003 -0.000001 19.389066 11.163752 -18.339770 -0.122764 -0.303276 13.029353 -0.000000 0.000000 0.000000 4.365203 2.482201 -9.819378 0.357983 -0.462945 21.884172 -0.000001 -0.000000 0.000001 -6.967634 -10.645380 0.715581 0.113408 -0.065613 21.149676 -0.000000 0.000001 -0.000000 -19.395275 -20.194267 0.984122 0.222199 -0.062347 31.838483 0.000003 0.000000 0.000001 -36.516080 9.196775 30.467421 42.425768 -8.075010 -9.747640 -4.630610 -2.841987 -9.731807 -0.327599 1.238422 0.837254 -0.000000 -0.000001 0.000000 -33.379271 -7.387809 -22.669560 45.432168 2.212401 -7.357248 -12.520894 5.353614 20.095494 -0.322831 -0.997476 -0.837146 -0.000000 0.000001 0.000000 
0.886264 90.186829 -0.497115 -3.686225 -60.657817 -1.493168 10.639772 0.428137 -1.597773 7.369347 0.453063 -4.726276 0.000000 0.000000 0.000000 7.573432 0.423502 -4.679430 -22.543798 25.796380 11.622070 -5.275321 25.598641 -2.912717 -0.000000 0.000000 0.000000 -6.440483 -10.884629 -4.337063 0.000000 0.000000 0.000000 -21.175188 6.913547 -38.724966 5.577243 -47.056653 2.897921 23.026052 -7.470481 15.124213 -1.779686 -11.806507 7.009866 1.107503 16.455715 -3.449352 -0.136561 -2.387713 0.851940 0.000002 -0.000004 -0.000002 13.258847 -0.994116 14.824104 -0.164106 0.325383 -26.961994 0.000000 0.000001 0.000000 8.531218 -0.380745 3.228203 0.228452 0.647217 -25.758213 0.000001 -0.000001 0.000001 6.140624 3.125764 -12.067783 0.029529 0.294148 -25.981884 0.000000 0.000002 -0.000001 -5.601404 7.673598 -9.738879 0.208911 0.277412 -42.444674 0.000001 -0.000000 -0.000000 -5.599833 11.504906 2.762667 0.000000 0.000000 0.000000 -43.512745 -24.472593 26.085462 33.347323 109.244518 -31.801193 -11.146643 20.342337 -2.590655 -0.415617 14.692867 -9.110323 -0.194278 -13.219767 4.757874 2.622733 -8.829368 -6.283190 -0.000001 -0.000000 0.000001 19.390115 11.163736 -18.289160 -0.122716 -0.303304 13.080229 0.000001 -0.000000 -0.000000 4.364106 2.481772 -9.768461 0.358291 -0.463193 21.935055 0.000000 -0.000000 -0.000005 -6.968121 -10.645739 0.766211 0.113362 -0.065998 21.200562 0.000002 -0.000001 0.000004 -19.396692 -20.195411 1.033496 0.222231 -0.062859 31.889299 0.000002 0.000000 0.000000 -36.274237 8.903462 29.877727 42.221965 -7.670860 -9.667721 -4.574348 -2.839178 -9.872656 -0.327599 1.238422 0.837254 0.000000 0.000001 0.000000 -33.450869 -7.555595 -22.961508 45.555979 3.429350 -7.285316 -12.538643 4.189892 19.712121 -0.322814 -0.997492 -0.837149 -0.000000 -0.000001 0.000000 
0.821487 90.232307 -0.492554 -3.396196 -60.406610 -1.061620 10.688323 0.419345 -1.577196 7.474951 0.433647 -4.690579 0.000000 0.000000 0.000000 7.681315 0.379658 -4.629600 -22.293813 25.770333 11.684729 -4.788367 25.569001 -3.031156 0.000000 -0.000000 -0.000000 -6.435435 -10.967012 -4.381019 0.000000 0.000000 0.000000 -20.957488 7.136091 -38.771029 6.404542 -46.581296 3.444886 22.835402 -7.451241 14.856010 -1.773502 -11.778459 7.021343 1.117307 16.481801 -3.439124 -0.129118 -2.361183 0.865259 0.000002 -0.000004 -0.000003 13.258212 -0.994227 14.793625 -0.164051 0.325103 -26.992460 0.000000 0.000000 -0.000006 8.530099 -0.380810 3.197763 0.228941 0.647368 -25.788704 0.000000 -0.000000 0.000001 6.140294 3.126122 -12.098272 0.029278 0.294312 -26.012331 -0.000000 0.000001 0.000001 -5.601552 7.673762 -9.769272 0.209017 0.278140 -42.475136 -0.000001 0.000001 -0.000002 -5.626218 11.415012 2.928150 0.000000 0.000000 0.000000 -43.757276 -24.499854 25.977042 33.032274 109.869556 -31.394736 -11.032540 21.015232 -3.371324 -0.404254 14.616204 -9.139759 -0.167426 -13.288511 4.728271 2.635434 -8.902219 -6.316152 -0.000001 0.000002 -0.000002 19.390965 11.163737 -18.207648 -0.122629 -0.303402 13.161999 0.000000 0.000000 -0.000003 4.362487 2.481086 -9.686595 0.358539 -0.463449 22.016867 -0.000000 -0.000000 0.000001 -6.968838 -10.646393 0.847657 0.113334 -0.066669 21.282332 0.000001 0.000000 0.000004 -19.397992 -20.196374 1.113743 0.222298 -0.063554 31.971050 -0.000001 0.000002 0.000000 -36.111398 8.615712 29.355047 42.038424 -7.315951 -9.597340 -4.528567 -2.836228 -10.000942 -0.327599 1.238421 0.837254 0.000000 0.000002 0.000000 -33.543411 -7.709983 -23.264475 45.531383 3.451705 -7.281817 -12.605803 4.177552 19.713951 -0.322810 -0.997546 -0.837138 -0.000000 0.000001 0.000000 
0.757894 90.270050 -0.482731 -3.096924 -60.230275 -0.656465 10.736234 0.405969 -1.581327 7.574214 0.410787 -4.672915 0.000000 0.000000 0.000000 7.783361 0.335828 -4.593507 -22.082901 25.743883 11.851054 -4.315872 25.561293 -3.138425 -0.000000 0.000000 0.000000 -6.409815 -11.054795 -4.315979 0.000000 0.000000 0.000000 -20.815365 7.378792 -38.792524 6.651018 -46.078338 3.603141 22.701218 -7.384945 14.639406 -1.764433 -11.732689 7.039587 1.133337 16.523172 -3.421329 -0.117976 -2.317972 0.886950 -0.000002 -0.000001 -0.000001 13.257854 -0.994371 14.744266 -0.163991 0.324732 -27.041872 0.000000 -0.000000 -0.000001 8.529107 -0.380422 3.148389 0.229298 0.647509 -25.838102 -0.000000 0.000000 -0.000000 6.139764 3.126619 -12.147726 0.029256 0.294721 -26.061768 0.000000 0.000003 -0.000001 -5.601765 7.674028 -9.818594 0.209216 0.278264 -42.524560 -0.000000 0.000001 -0.000000 -5.654107 11.324968 3.104022 0.000000 0.000000 0.000000 -43.920657 -24.514017 25.947624 32.981969 110.450122 -31.251063 -10.860964 21.577724 -4.048038 -0.388296 14.513293 -9.179724 -0.130935 -13.381361 4.689035 2.652702 -9.000482 -6.360357 -0.000001 -0.000000 -0.000000 19.391612 11.163773 -18.097752 -0.122592 -0.303546 13.272231 -0.000001 -0.000001 -0.000002 4.360324 2.480184 -9.576309 0.358769 -0.463766 22.127018 0.000000 0.000000 0.000001 -6.969808 -10.647241 0.957385 0.113232 -0.067376 21.392538 -0.000001 -0.000000 -0.000001 -19.399177 -20.197146 1.222453 0.222385 -0.064295 32.081327 -0.000001 0.000000 0.000000 -36.003095 8.396290 28.945939 41.889277 -7.020398 -9.539605 -4.502737 -2.832744 -10.110346 -0.327599 1.238422 0.837254 -0.000000 -0.000001 0.000000 -33.650115 -7.818284 -23.498168 45.509185 3.476191 -7.278699 -12.661490 4.167511 19.713814 -0.322818 -0.997332 -0.837123 -0.000000 0.000002 0.000000 
